<?xml version="1.0" encoding="UTF-8"?>
<svg width="438px" height="222px" viewBox="0 0 438 222" version="1.1" xmlns="http://www.w3.org/2000/svg" xmlns:xlink="http://www.w3.org/1999/xlink">
    <title>logo</title>
    <defs>
        <path d="M68.9745426,0 C28.658115,0 0.507809424,27.0718095 0.507809424,62.9576883 L0.507809424,133.968575 L23.8983621,133.968575 L23.8983621,62.9182723 C23.8786135,29.5114186 49.3100778,5.71863998 74.8203242,0.550878453 C75.8473193,0.321346644 77.0717998,0 75.8603908,0 L68.9745426,0 Z M73.464069,3.11509516 L73.4838528,3.11509516 C69.8453863,4.30997256 66.3764959,5.96523684 63.161263,8.04021199 C45.1886728,19.1889803 37.1309833,39.6180891 36.3145451,59.4162238 C36.268265,60.5441572 36.2488344,61.6724425 36.2488344,62.7806679 L36.2488344,63.646414 L36.2488344,133.968575 L59.6121772,133.968575 L59.6121772,63.646414 C59.6089976,59.380327 61.5128423,55.3345478 64.8072107,52.6088553 L74.02367,63.646414 L83.2404826,52.615542 C86.5327313,55.3398267 88.4372825,59.3827905 88.4348095,63.646414 L88.4348095,133.968575 L111.798859,133.968575 L111.798859,63.646414 C111.798859,42.8611176 94.8889453,26.0100388 74.02367,26.0028243 C69.2409183,25.9923368 64.5009139,26.8966895 60.0604939,28.6654158 C64.8467784,23.0516859 72.0753116,20.2776384 79.9817958,20.1398933 C82.5123653,20.093333 85.0415217,20.2940031 87.5328768,20.736695 C108.217624,24.1140901 123.984666,41.3882935 124.063801,62.2232119 C124.063801,63.0168125 124.11644,63.8234344 124.11644,64.6363911 L124.11644,133.961536 L147.474131,133.961536 C147.474131,133.961536 147.513345,64.5448895 147.513345,64.0264976 C147.513345,33.7217248 129.231632,9.42396281 98.0858075,2.19696089 C96.9535339,1.94119627 95.1429561,1.58705685 93.5369295,1.35752505 C91.1805287,1.0217493 88.8061104,0.83746856 86.4267462,0.806646592 C82.0036371,0.81123575 77.6158564,1.59296223 73.464069,3.11509516 Z" id="path-1"></path>
    </defs>
    <g id="Page-1" stroke="none" stroke-width="1" fill="none" fill-rule="evenodd">
        <g id="logo">
            <g id="h" transform="translate(130.000000, 0.000000)">
                <g id="Clipped">
                    <g id="Path-Clipped">
                        <mask id="mask-2" fill="white">
                            <use xlink:href="#path-1"></use>
                        </mask>
                        <g id="path-1"></g>
                        <polygon id="Path" fill="#E31F26" fill-rule="nonzero" mask="url(#mask-2)" points="0.507809424 133.968575 147.533129 133.968575 147.533129 0 0.507809424 0"></polygon>
                    </g>
                </g>
                <polygon id="Path" fill="#FFFFFF" fill-rule="nonzero" points="48.3428519 21.7529141 48.5418678 21.7529141 48 22.614615 48.1648043 22.8581632 48.4866878 22.8706623 49.1860027 21.7529141 51.0779418 21.7529141 50.1387778 23.2453338 48.7199154 23.2453338 48.56909 23.5013476 48.7199154 23.7511286 49.8099048 23.7511286 49.1996137 24.718988 49.3504391 25 49.67968 24.9750353 50.2965926 24.0071423 50.8450821 24.8688767 51.160344 24.8626104 51.3247804 24.6190957 50.618844 23.5013476 51.5646296 22.0089279 52.5107831 23.5013476 51.7978572 24.6190957 51.9692831 24.8626104 52.284545 24.8688767 52.8330344 24.0071423 53.4499471 24.9750353 53.7788201 25 53.9296455 24.718988 53.3127328 23.7511286 54.4097117 23.7511286 54.5535476 23.5013476 54.4097117 23.2453338 52.9974709 23.2453338 52.0446958 21.7529141 53.9436244 21.7529141 54.6495609 22.8706623 54.9648227 22.8581632 55.1292592 22.614615 54.5811376 21.7529141 55.8079735 21.7529141 56 21.4968668 55.8079735 21.2408531 54.5811376 21.2408531 55.1292592 20.385385 54.9648227 20.135604 54.6495609 20.1293377 53.9436244 21.2408531 52.0446958 21.2408531 52.9974709 19.7546997 54.4097117 19.7546997 54.5535476 19.4986524 54.4097117 19.2426386 53.3127328 19.2426386 53.9296455 18.281012 53.7788201 18 53.4499471 18.0249982 52.8330344 18.9928577 52.284545 18.1311233 51.9692831 18.1373896 51.7978572 18.3809043 52.5107831 19.4986524 51.5646296 20.9910721 50.618844 19.4986524 51.3247804 18.3809043 50.0431324 19.7546997 50.1387778 19.7546997 51.0779418 21.2408531 49.1860027 21.2408531 49.0009657 20.9536083"></polygon>
                <path d="M13.0000059,57.4940872 C13.0029647,58.8749707 11.8863202,59.9971183 10.5059586,60 C9.12502208,60.0031874 8.00297922,58.887109 7.99999147,57.505906 C7.99643102,56.1256613 9.11310754,55.0028748 10.4940441,55 L10.5059586,55 C11.8821357,55.0028748 12.9964485,56.117995 13.0000059,57.4940872 Z" id="Path" fill="#FFFFFF" fill-rule="nonzero"></path>
                <path d="M55.2888302,75.9566349 C55.7160747,76.2257014 56.0509793,76.6186846 56.2521977,77.085113 C57.0805007,79.2393853 55.0707288,81.6258275 54.0563677,83.4160072 C53.9485229,83.6638408 53.9295725,83.9419574 54.0050294,84.2009295 C54.13148,84.457117 54.3688763,84.6398595 54.6469298,84.6945081 L59,85.8936466 L59,88.7151899 L45.3371343,99.2425468 C44.4812671,99.8816232 43.5406401,100.396435 42.5441957,100.774102 C41.4364609,101.173003 40.2095112,101.038644 39.2116886,100.410358 C38.7172564,100.151386 39.1410554,99.5993296 39.9438616,99.8718769 C40.748046,100.200117 41.6400912,100.234577 42.467016,99.9696876 C43.1182193,99.70445 43.7311774,99.3528884 44.2903853,98.924749 L58.6406322,87.8978961 L49.2922469,86.5365519 C49.2922469,86.5365519 47.2052954,88.6309543 46.7239562,89.0465629 C46.2422725,89.4611271 45.0738966,89.3128447 45.5424873,88.6706356 L47.8347919,85.5309464 L48.73993,84.4668633 C47.8282454,84.7909265 45.5297389,85.3878852 45.2727031,85.4331357 C43.4365854,85.7711222 42.7044124,84.0456855 43.3466573,82.3522722 C44.8265082,79.3378921 47.3345024,76.9653731 50.4092846,75.6719048 C51.74339,75.1964263 53.1946431,75.1710164 54.5442533,75.599852 L57.2152206,72 L57.857121,72.4410184 L55.2888302,75.9566349 Z" id="Path" fill="#FFFFFF" fill-rule="nonzero"></path>
                <path d="M21.7526136,69.7553932 L11.9251608,81.9276321 C9.38547058,85.0090245 8.39168635,85.7199828 6.60548197,85.7199828 L1,85.7199828 L1,88 L6.59248062,88 C9.43095789,88 11.0157982,86.6299957 13.7373679,83.3553932 L23.571304,71.1264289 L23.6102732,71.0686721 C23.7791513,70.8373012 23.8960589,70.683627 24,70.5626128 L24,68 C23.0841542,68.1663945 22.4606122,68.7429308 21.7526136,69.7553932 Z" id="Path" fill="#FFFFFF" fill-rule="nonzero"></path>
                <path d="M22.2803344,59 C19.6460531,59 18.5511203,60.3964281 16.889383,62.5041339 L16.1873319,63.3883322 L13.6818683,66.4761504 L13.6818683,65.6239235 C13.7546587,64.1398319 12.6043554,62.8778211 11.1120131,62.8052839 C9.61970532,62.7327466 8.3515064,63.8775289 8.27805925,65.3612768 C8.27356601,65.4492841 8.27356601,65.5369476 8.27805925,65.6239235 L8.27805925,73.1705485 L6.34582899,75.540901 L6.03669427,75.9314334 C5.39260599,76.7197174 5.39260599,76.7197174 4.27835229,76.7197174 L1,76.7197174 L1,79 L4.29124442,79 C6.38447083,79 6.8675284,78.5902161 7.8594278,77.3223611 L17.977887,64.8425151 L18.6992589,63.9328773 C20.3674251,61.8059199 20.8182696,61.306066 22.2803344,61.306066 L23.8711823,61.306066 C23.8711823,60.8643106 23.9227163,60.0251474 24,59.0257834 L22.2803344,59 Z" id="Path" fill="#FFFFFF" fill-rule="nonzero"></path>
                <path d="M41.3822212,89.9971893 C42.7615658,90.062031 43.9323156,88.9970944 43.9971621,87.6181709 C44.0623279,86.2389279 42.997313,85.0682643 41.6179684,85.0027838 C40.2389433,84.9382615 39.067874,86.0031981 39.0023887,87.382441 C39.0017498,87.3948983 39.0011109,87.4073556 39.0011109,87.4204517 C38.9608614,88.7840432 40.0191682,89.9297923 41.3822212,89.9971893 Z" id="Path" fill="#FFFFFF" fill-rule="nonzero"></path>
                <path d="M17.3238631,120.706112 C15.7277877,121.051931 13.7749089,118.801439 12.9574085,115.689072 C12.1399082,112.576348 12.7627821,109.715777 14.3588228,109.397381 C15.9548634,109.07863 17.914253,111.302055 18.7317533,114.421189 C19.5492537,117.540679 18.9523531,120.341418 17.3562777,120.706112 L17.3238631,120.706112 Z M5.64541096,123.899325 C4.47107239,123.9848 3.31623128,122.451588 3.0501955,120.473905 C2.78419453,118.496221 3.54978292,116.830522 4.72412148,116.750746 C5.89846005,116.671325 7.05330116,118.19777 7.31933695,120.175454 C7.58533792,122.153849 6.83273622,123.818836 5.65839766,123.899325 L5.64541096,123.899325 Z M23.1630718,111.381832 C22.8386481,110.717974 22.6699603,109.974695 22.3585582,109.277716 C21.5929698,107.301457 20.4556067,105.497573 19.010741,103.968635 C17.9564162,102.945781 17.174638,101.664365 16.7399144,100.245476 C16.0392247,98.1349495 15.6823865,97.1259855 13.8657461,96.741703 C13.0482458,96.5760947 13.0612324,97.4379701 11.0239923,96.4026512 C10.7904059,96.283342 10.3103159,95.95818 10.0507909,96.004479 C9.79126584,96.0514904 9.88857902,96.4557171 9.94049099,96.5155498 C10.195455,96.838575 10.502331,97.1156572 10.8487938,97.3318384 C12.5746317,98.3140914 12.5811077,99.8868359 12.6914075,100.8958 C12.7290446,101.293972 12.6355961,101.693569 12.4254066,102.030484 C11.8122813,102.668343 11.3139821,103.412334 10.9526177,104.227198 C10.1221655,106.4638 9.76529244,107.897291 10.0442801,110.366457 C10.2596921,112.710259 10.9351048,114.985326 12.0296431,117.055963 C13.1455589,119.126601 14.2485229,120.965744 15.974326,122.425233 C15.5396373,122.664208 14.6767357,123.209113 14.2744963,123.447375 L13.976046,123.699527 C13.976046,123.818836 14.1576857,123.851958 14.404224,123.851958 C12.9963338,124.170709 11.5235449,124.449928 9.97294032,124.68819 C9.97294032,124.68819 9.97294032,124.628714 9.92750429,124.589538 L9.54472751,124.536116 L8.24710237,124.416094 C8.80573921,123.663556 9.23134076,122.816639 9.50580223,121.914163 C9.86521689,120.848927 9.84446603,119.687532 9.44737951,118.635475 C9.96385311,119.092767 10.5153177,119.507678 11.0953669,119.876646 C11.3094559,119.976368 11.4716678,120.029433 11.4456944,119.970313 C11.2899933,119.505185 10.985067,119.106657 10.7969166,118.642954 C10.6087662,118.177826 10.5957795,117.739765 10.4530303,117.315594 C10.0981418,116.028836 9.47659087,114.835388 8.62991397,113.81752 C7.99666454,113.137636 7.56782502,112.28502 7.39718749,111.361887 C7.11819983,110.034528 6.96897468,109.37067 5.71678557,108.986032 C5.1523343,108.813301 4.7695227,109.132408 4.26345934,108.774124 C4.03833339,108.635583 3.8073582,108.508795 3.56924555,108.395184 C3.47193237,108.348885 3.42653116,108.680458 3.42653116,108.733524 C3.42653116,108.946143 3.76390673,109.284483 3.90014519,109.443681 C4.75657082,110.425934 4.65922282,110.618609 4.63328424,111.248989 C4.64884739,111.428843 4.57294659,111.60478 4.43214712,111.713404 C3.9455464,112.084509 3.50956942,112.520077 3.1345568,113.007642 C2.26709422,114.161202 1.78504754,115.568694 1.75909852,117.022842 C1.58911207,118.460963 1.75844745,119.919028 2.25219259,121.277016 C2.73618205,122.628237 3.49724424,123.856588 4.48405909,124.880866 C4.15315946,124.993408 3.49787095,125.259094 3.18646877,125.371992 L2.94640638,125.498068 C2.29759381,125.544367 1.64880213,125.597433 1,125.630555 L1,128 C10.732018,127.528818 17.9272397,125.902651 24,123.35442 L24,120.752768 C23.7534617,120.858899 23.4874607,120.958621 23.2344464,121.071163 L22.9035468,121.071163 C22.4428846,121.071163 21.5345819,121.071163 21.0739197,121.111051 C21.6682091,119.767666 22.0490709,118.336311 22.2028223,116.870411 C22.3520474,115.509574 21.949808,113.81752 22.2028223,112.556404 C22.2028223,112.556404 23.260385,113.067475 23.9091976,113.31286 L24,113.346338 L24,112.68248 C23.6944471,112.267569 23.4147979,111.83307 23.1630718,111.381832 Z" id="Shape" fill="#FFFFFF" fill-rule="nonzero"></path>
                <path d="M44.9889311,106.751348 C42.1919868,109.033327 39.5893763,111.165005 37,113.100974 L37,116 C40.0762557,113.769764 43.1263912,111.277292 46.4426038,108.561655 C47.9352826,107.333195 49.4976151,106.064607 51.1285565,104.7573 C54.3733741,102.179645 57.2807196,99.7132206 60,97.2003328 L60,94 C56.8913554,96.997584 53.5103648,99.9036495 49.6940386,102.927281 C48.0523008,104.239164 46.5272331,105.551047 44.9889311,106.751348 Z" id="Path" fill="#FFFFFF" fill-rule="nonzero"></path>
                <polygon id="Path" fill="#FFFFFF" fill-rule="nonzero" points="37 24.6389165 36.8999953 24.4931391 34.6506042 24.4931391 35.6556513 22.7638635 35.3492083 22.2735536 34.7702526 22.2536781 33.4723346 24.4931391 30.0049578 24.4931391 31.7420392 21.5049867 34.3377323 21.5049867 34.6106023 20.9948013 34.3377323 20.4846159 32.3343884 20.4846159 33.452548 18.5499364 33.1863212 18 32.5740068 18.0463999 31.4492041 19.9744661 30.4442284 18.2451549 29.8718444 18.2716793 29.5590441 18.7553403 30.8568549 20.9948013 29.1264166 23.9829892 27.3893352 20.9948013 28.687146 18.7553403 28.3809888 18.2716793 27.8019617 18.2451549 26.8036292 19.9744661 25.6788265 18.0463999 25.0598689 18 24.7936421 18.5499364 25.9184448 20.4846159 23.9084578 20.4846159 23.642231 20.9948013 23.9084578 21.5049867 26.5041151 21.5049867 28.2412323 24.4931391 24.7736769 24.4931391 23.4758661 22.2536781 22.8968032 22.2735536 22.590646 22.7638635 23.5956574 24.4931391 21.3460877 24.4931391 21 24.9967111 21.3460877 25.5068609 23.5956574 25.5068609 22.590646 27.2361721 22.8968032 27.7198331 23.4758661 27.7463575 24.7736769 25.5068609 28.2412323 25.5068609 26.5041151 28.5016622 23.9084578 28.5016622 23.642231 29.0052343 23.9084578 29.5153841 25.9184448 29.5153841 24.7936421 31.4500992 25.0598689 32 25.6788265 31.960249 26.8036292 30.0255695 27.8019617 31.7548451 28.3809888 31.7349696 28.687146 31.2446953 27.3893352 29.0052343 29.1264166 26.0170463 30.8568549 29.0052343 29.5590441 31.2446953 29.8718444 31.7349696 30.4442284 31.7548451 31.4492041 30.0255695 32.3343884 31.5494767 32.9333808 30.5423681 32.3343884 29.5153841 33.5655533 29.5153841 34.2245128 28.5016622 31.7420392 28.5016622 30.0049578 25.5068609 33.4723346 25.5068609 34.7502517 27.7066065 35.3959962 26.7856132 34.657033 25.5068609 36.3342545 25.5068609"></polygon>
                <polygon id="Path" fill="#FFFFFF" fill-rule="nonzero" points="26.7695732 41.3921359 26.5786461 41 26.1441139 41.0264041 25.3540489 42.4094056 24.6495902 41.1726968 24.2414146 41.1926782 24.0241309 41.5384286 24.932695 43.1340898 23.7147046 45.2753158 22.4901074 43.1340898 23.4118499 41.5384286 23.1879946 41.1926782 22.7863906 41.1726968 22.0819319 42.4094056 21.2852954 41.0264041 20.8573347 41 20.6664076 41.3921359 21.4564726 42.7751374 20.0409483 42.7751374 19.856628 43.1340898 20.0409483 43.4998216 21.8712549 43.4998216 23.0958168 45.6342682 20.6532646 45.6342682 19.7380936 44.038607 19.329918 44.051809 19.1126343 44.403982 19.8171283 45.6342682 18.2369983 45.6342682 18 46 18.2369983 46.3657318 19.8171283 46.3657318 19.1126343 47.6024406 19.329918 47.948191 19.7380936 47.961393 20.6532646 46.3657318 23.0958168 46.3657318 21.8712549 48.4998216 20.0409483 48.4998216 19.856628 48.8655534 20.0409483 49.2248626 21.4564726 49.2248626 20.6664076 50.6142867 20.8573347 51 21.2852954 50.9735959 22.0819319 49.5905944 22.7863906 50.8273032 23.1879946 50.8137444 23.4118499 50.4615714 22.4901074 48.8655534 23.7147046 46.7314636 24.932695 48.8655534 24.0241309 50.4615714 24.2414146 50.8137444 24.6495902 50.8273032 24.8931953 50.4016271 25.3935486 48.2075929 24.3401639 46.3657318 25.8741874 46.3657318 26.0848643 45.6342682 24.3401639 45.6342682 25.5581543 43.4998216 26.7563949 43.4998216 27 42.7751374 25.9795082 42.7751374"></polygon>
                <polygon id="Path" fill="#FFFFFF" fill-rule="nonzero" points="39.9196591 47.3620966 39.1738043 48.5979676 39.4016735 48.9434837 39.8299935 48.9566768 40.7896378 47.3620966 43.3510359 47.3620966 42.0668169 49.4950972 40.1541977 49.4950972 39.9541174 49.8602246 40.1541977 50.2192904 41.6318276 50.2192904 40.803347 51.6077732 41.0034273 52 41.4524964 51.966839 42.2880168 50.5847745 43.0264612 51.8206454 43.4547812 51.8070957 43.6826504 51.4615796 42.7230061 49.8602246 44.0072251 47.7275807 45.2844042 49.8602246 44.3314293 51.4615796 44.5526291 51.8070957 44.9805786 51.8206454 45.7193936 50.5847745 46.5478741 51.966839 47.0036126 52 47.1970235 51.6077732 46.3752123 50.2192904 47.8528422 50.2192904 48.0529225 49.8602246 47.8528422 49.4950972 45.9335536 49.4950972 44.656004 47.3620966 47.2177726 47.3620966 48.170377 48.9566768 48.598697 48.9434837 48.8265662 48.5979676 48.0877513 47.3620966 49.7447124 47.3620966 50 47.0033874 49.7447124 46.6379034 48.0877513 46.6379034 48.8265662 45.4020324 48.598697 45.0565163 48.170377 45.0429667 47.2177726 46.6379034 44.656004 46.6379034 45.9335536 44.5049028 47.8528422 44.5049028 48.0529225 44.1394188 47.8528422 43.7739347 46.3752123 43.7739347 47.1970235 42.398645 47.0036126 42 46.5478741 42.0263862 45.7193936 43.4152255 44.9805786 42.1793546 44.5526291 42.1925477 44.3314293 42.5448387 45.2844042 44.1394188 44.0072251 46.2724193 42.7230061 44.1394188 43.6826504 42.5448387 43.4547812 42.1925477 43.0264612 42.1793546 42.2880168 43.4152255 41.4524964 42.0263862 41.0034273 42 40.803347 42.398645 41.6318276 43.7739347 40.1541977 43.7739347 39.9541174 44.1394188 40.1541977 44.5049028 42.0668169 44.5049028 43.3510359 46.6379034 40.7896378 46.6379034 39.8299935 45.0429667 39.4016735 45.0565163 39.1738043 45.4020324 39.9196591 46.6379034 38.2556581 46.6379034 38 47.0033874 38.2556581 47.3620966"></polygon>
                <path d="M10.1979645,31.9527635 L10.5874854,31.9527635 L11.4750874,30.355934 L13.8441848,30.355934 L12.6628401,32.4983219 L10.8876362,32.4983219 L10.7024536,32.8576121 L10.8876362,33.2169023 L12.2733192,33.2169023 L11.5070249,34.6074336 L11.6922075,35 L12.1072922,34.9667238 L12.8799602,33.5828335 L13.5504421,34.8336547 L13.939963,34.8336547 L14.1507093,34.4876821 L13.2694812,32.8775707 L14.4508259,30.7351828 L15.6385786,32.8775707 L14.7509424,34.4743645 L14.9616887,34.820337 L15.3575834,34.820337 L16.0344733,33.5828335 L16.8071414,34.9667238 L17.2285998,35 L17.4074087,34.6074336 L16.6411144,33.2169023 L18.0204235,33.2169023 L18.2056062,32.8576121 L18.0204235,32.5116395 L16.2388116,32.5116395 L15.0574669,30.3692516 L17.4265643,30.3692516 L18.3077925,31.9660454 L18.7036872,31.9660454 L18.9144336,31.6200728 L18.2311356,30.3825693 L19.7637242,30.3825693 L20,30.0166381 L19.7637242,29.6507069 L18.2311356,29.6507069 L18.9144336,28.4198443 L18.7036872,28.0671951 L18.3077925,28.0671951 L17.4265643,29.6639889 L15.0574669,29.6639889 L16.2388116,27.5282776 L18.0204235,27.5282776 L18.2056062,27.1689874 L18.0204235,26.7764567 L16.6411144,26.7764567 L17.381845,25.3925664 L17.2030704,25 L16.781612,25 L16.0089439,26.3838903 L15.332054,25.1463867 L14.936125,25.1463867 L14.7254129,25.4990003 L15.6130149,27.0958298 L14.4252964,29.231541 L13.2439518,27.0958298 L14.1507093,25.558876 L13.939963,25.2062625 L13.6334727,25.2062625 L13.3588856,25.558876 L12.8671784,26.4438018 L12.7969296,26.3240146 C12.6436845,26.5236361 11.9284833,27.5349186 11.9284833,27.5349186 L12.6628401,27.5349186 L13.8441848,29.6706655 L11.4750874,29.6706655 L11.0345076,28.8788917 L10.5938935,29.5442374 L10.6768899,29.6839474 L10.498081,29.6839474 L10.0510931,30.4158455 L10.6896717,30.4158455 L10,31.653349 L10.1979645,31.9527635 Z" id="Path" fill="#FFFFFF" fill-rule="nonzero"></path>
                <polygon id="Path" fill="#FFFFFF" fill-rule="nonzero" points="72.0929902 13.6347964 72.832216 12.4063812 72.6042201 12.0544687 72.1760326 12.0411776 71.2158547 13.6347964 68.6597053 13.6347964 69.9309216 11.5033317 71.8512775 11.5033317 72.0585128 11.1381281 71.8512775 10.7795523 70.3728259 10.7795523 71.2021378 9.39841361 71.0015756 9 70.5455837 9.03321004 69.7166425 10.4143487 68.9774167 9.17927009 68.5559023 9.19918899 68.3279063 9.5445093 69.2814112 11.1381281 68.0035219 13.2762206 66.7185888 11.1381281 67.6787667 9.5445093 67.4507708 9.19918899 67.0292564 9.17927009 66.2833575 10.4143487 65.4540455 9.03321004 64.9984244 9 64.7978622 9.39841361 65.6268034 10.7795523 64.1483518 10.7795523 63.9481603 11.1381281 64.1483518 11.5033317 66.0690784 11.5033317 67.3469678 13.6347964 64.7841453 13.6347964 63.8239674 12.0411776 63.402453 12.0544687 63.174457 12.4063812 63.9136828 13.6347964 62.2558003 13.6347964 62 14 62.2558003 14.3585758 63.9136828 14.3585758 63.174457 15.6002822 63.402453 15.9455669 63.8239674 15.958858 64.7841453 14.3585758 67.3469678 14.3585758 66.0690784 16.4967039 64.1483518 16.4967039 63.9481603 16.8619075 64.1483518 17.2204477 65.6268034 17.2204477 64.7978622 18.6082498 64.9984244 19 65.4540455 18.9668256 66.2833575 17.5856869 67.0292564 18.8207299 67.4507708 18.800811 67.6787667 18.4555263 66.7185888 16.8619075 68.0035219 14.7237794 69.2814112 16.8619075 68.3279063 18.4555263 68.5559023 18.800811 68.9774167 18.8207299 69.7166425 17.5856869 70.5455837 18.9668256 71.0015756 19 71.2021378 18.6082498 70.3728259 17.2204477 71.8512775 17.2204477 72.0585128 16.8619075 71.8512775 16.4967039 69.9309216 16.4967039 68.6597053 14.3585758 71.2158547 14.3585758 72.1760326 15.958858 72.6042201 15.9455669 72.832216 15.6002822 72.0929902 14.3585758 73.7512435 14.3585758 74 14 73.7512435 13.6347964"></polygon>
                <polygon id="Path" fill="#FFFFFF" fill-rule="nonzero" points="51.2746213 36.756073 50.7795808 37.6187054 50.9343017 37.8625365 51.2188421 37.8749461 51.8559867 36.756073 53.5638929 36.756073 52.7162482 38.2499162 51.4353185 38.2499162 51.2991907 38.4997844 51.4353185 38.7563605 52.4190911 38.7563605 51.8686034 39.7249772 51.9984229 40 52.3015563 39.981218 52.8583524 39.0126012 53.3470845 39.8748982 53.6319568 39.8624886 53.7863457 39.6250299 53.1492011 38.4997844 54.0031542 37.0123137 54.8567753 38.4997844 54.2196306 39.6250299 54.3680432 39.8624886 54.6525835 39.8748982 55.147624 39.0126012 55.6981116 39.981218 56.0015771 40 56.1313966 39.7249772 55.5805769 38.7563605 56.5706578 38.7563605 56.7004773 38.4997844 56.5706578 38.2499162 55.2900602 38.2499162 54.4361071 36.756073 56.1436813 36.756073 56.7811579 37.8749461 57.0716746 37.8625365 57.2204192 37.6187054 56.7253787 36.756073 57.8326624 36.756073 58 36.4998323 57.8326624 36.2435916 56.7253787 36.2435916 57.2204192 35.3874659 57.0716746 35.1374635 56.7811579 35.1312251 56.1436813 36.2435916 54.4361071 36.2435916 55.2900602 34.7499832 56.5706578 34.7499832 56.7004773 34.4999808 56.5706578 34.2437401 55.5805769 34.2437401 56.1313966 33.2749892 56.0015771 33 55.6981116 33.0249868 55.147624 33.9874994 54.6525835 33.1250012 54.3680432 33.1312395 54.2196306 33.3812419 54.8567753 34.4999808 54.0031542 35.9937233 53.1492011 34.4999808 53.7863457 33.3812419 53.6319568 33.1312395 53.3470845 33.1250012 52.8583524 33.9874994 52.3015563 33.0249868 51.9984229 33 51.8686034 33.2749892 52.4190911 34.2437401 51.4353185 34.2437401 51.2991907 34.4999808 51.4353185 34.7499832 52.7162482 34.7499832 53.5638929 36.2435916 51.8559867 36.2435916 51.2188421 35.1312251 50.9343017 35.1374635 50.7795808 35.3874659 51.2746213 36.2435916 50.173314 36.2435916 50 36.4998323 50.173314 36.756073"></polygon>
                <polygon id="Path" fill="#FFFFFF" fill-rule="nonzero" points="8.27355443 43.7590235 7.78516006 44.6145045 7.93352631 44.8581139 8.21791708 44.8705122 8.86088175 43.7590235 10.5672264 43.7590235 9.71405407 45.2515079 8.4342956 45.2515079 8.29830426 45.5011489 8.4342956 45.7571565 9.42349243 45.7571565 8.8670858 46.7188607 9.00307714 47 9.30601369 46.9748684 9.85624946 46.0071326 10.3446438 46.875012 10.6352386 46.8626137 10.7836049 46.6190043 10.1468111 45.5011489 10.9999834 44.0089995 11.8531557 45.5011489 11.2163619 46.6190043 11.3647614 46.8626137 11.655323 46.875012 12.1437174 46.0071326 12.6939531 46.9748684 12.9968897 47 13.1329142 46.7188607 12.5826784 45.7571565 13.5656712 45.7571565 13.7016957 45.5011489 13.5656712 45.2515079 12.2921168 45.2515079 11.4389445 43.7590235 13.1452891 43.7590235 13.7820497 44.8705122 14.0664405 44.8581139 14.2148399 44.6145045 13.7202415 43.7590235 14.8268839 43.7590235 15 43.5030158 14.8268839 43.2470081 13.7202415 43.2470081 14.2148399 42.3854955 14.0664405 42.1418861 13.7820497 42.1294878 13.1452891 43.2470081 11.4389445 43.2470081 12.2921168 41.7545237 13.5656712 41.7545237 13.7016957 41.498516 13.5656712 41.2425084 12.5826784 41.2425084 13.1329142 40.2811393 12.9968897 40 12.6939531 40.0251316 12.1437174 40.9928674 11.655323 40.124988 11.3647614 40.1373863 11.2163619 40.3809957 11.8531557 41.498516 10.9999834 42.9973672 10.1468111 41.498516 10.7836049 40.3809957 10.6352386 40.1373863 10.3446438 40.124988 9.85624946 40.9928674 9.30601369 40.0251316 9.00307714 40 8.8670858 40.2811393 9.42349243 41.2425084 8.4342956 41.2425084 8.29830426 41.498516 8.4342956 41.7545237 9.71405407 41.7545237 10.5672264 43.2470081 8.86088175 43.2470081 8.21791708 42.1294878 7.93352631 42.1418861 7.78516006 42.3854955 8.27355443 43.2470081 7.1730829 43.2470081 7 43.5030158 7.1730829 43.7590235"></polygon>
                <path d="M145.402642,90.1708429 C145.048603,89.8156998 144.503257,89.7318513 144.058269,89.9646866 L138.570662,92.8307786 C138.516999,92.72233 138.4487,92.6204646 138.369947,92.5272611 L124.006621,78 L124.006621,81.9710203 L124.369372,81.609294 L128.175292,85.4832996 L131.493364,88.8348117 L136.532498,93.935014 L130.311724,97.1631788 L125.590388,92.4240098 L129.363554,88.7440336 L127.740061,87.1554176 L124,90.8101006 L124,94.0382654 L125.032498,95.0842919 L128.181216,98.2348449 L124.006621,100.41733 L124.006621,103 L144.370144,92.3602572 L147,95.0195 L147,91.7913352 L145.402642,90.1708429 Z" id="Path" fill="#FFFFFF" fill-rule="nonzero"></path>
                <path d="M100.499652,118.610333 C99.1369907,119.903781 97.0086366,119.883379 95.6706749,118.564604 C94.3494116,117.205024 94.3681974,115.020198 95.7120731,113.684186 C97.0566446,112.348526 99.2173518,112.368225 100.538963,113.727102 C101.857791,115.08844 101.839353,117.271156 100.499652,118.610333 Z M107.203376,98.7618711 L110.677345,95.3071658 L109.050292,93.6946651 L105.763484,96.9720798 L101.782996,91.9509553 L104.687827,89.0668163 L103.060078,87.447632 L100.344496,90.1485003 L96.3636597,85.146723 L98.6064676,82.918278 L96.9794143,81.2990938 L94.9244638,83.3375845 C93.7900142,81.9217217 92.882385,80.7746089 92.3313368,80.0601698 L94.6520707,77.1633672 L97.0573404,79.6405116 L100.376849,83.0428036 L103.106347,85.8548303 L106.347581,89.2110408 L108.940708,91.8855266 L111.922074,94.9402726 L111.922074,90.7778118 L111.481305,91.2168172 L107.085791,86.7068104 L111.111852,82.708273 L109.484451,81.0890888 L105.484829,85.0615954 L101.056962,80.5125424 L105.024579,76.5794337 L103.403787,74.9078362 L99.4563481,78.8409448 L96.0985722,75.3929231 L100.344496,70.0896813 L103.780546,73.5968 L107.099707,76.9994437 L109.562377,79.5029706 L111.955123,81.9481042 L111.955123,78.6703378 L107.501513,74.1343002 L111.617328,70.0506352 L109.996536,68.4314509 L105.899507,72.495417 L101.809783,68.3266243 L106.16529,62.879158 L112,68.8641245 L112,65.5863581 L106.924025,60.342565 C106.696509,60.1082881 106.379935,59.9837625 106.055359,60.0017026 C105.731131,60.0154215 105.428472,60.1705508 105.225308,60.4276926 L90.0304323,79.4371902 C89.6929848,79.8600143 89.6929848,80.4639985 90.0304323,80.8861191 C90.2120277,81.1154713 108.584127,104.176271 111.105242,107.381574 C111.866413,108.283505 112.038615,109.55057 111.546011,110.626274 L110.943129,111.707958 C110.496446,112.514208 110.496446,112.514208 110.327374,112.802657 C110.15865,113.091107 109.99097,113.380259 109.46497,114.297316 C109.063859,114.99874 108.635962,115.378648 108.168406,115.437745 C106.930983,115.575638 104.927171,113.530464 103.630608,112.160331 C103.630608,112.160331 94.6138034,102.918352 89,97.1426869 L89,100.387387 C92.5776386,104.071445 96.3570499,107.951788 98.8465075,110.521447 C98.6109901,110.480994 98.3730375,110.456722 98.1340412,110.449335 C94.9794295,110.423304 92.4012615,112.986983 92.3748223,116.175753 C92.348731,119.364874 94.8841093,121.972524 98.0380252,122 C101.191941,122.025641 103.770805,119.461962 103.797244,116.272841 C103.799331,116.01992 103.784372,115.767703 103.754454,115.516541 C105.051018,116.722751 106.521871,117.738654 108.039689,117.738654 C108.177799,117.749207 108.316257,117.749207 108.454367,117.738654 C109.640651,117.59443 110.639078,116.833909 111.416946,115.47046 C111.669162,115.024771 111.851454,114.710291 111.987476,114.480939 L111.987476,103.074888 L111.183168,103.750281 C110.132907,102.439245 108.752155,100.721566 107.203376,98.7618711 Z" id="Shape" fill="#FFFFFF" fill-rule="nonzero"></path>
                <polygon id="Path" fill="#FFFFFF" fill-rule="nonzero" points="56.6558 73.4874 58.2929 73.2096 58.3442 73.5126 56.7074 73.7904"></polygon>
                <polygon id="Path" fill="#FFFFFF" fill-rule="nonzero" points="57.2096 71.7071 57.5126 71.6555 57.7904 73.2932 57.4874 73.3445"></polygon>
                <path d="M122.102743,13 L108,29.5019447 C111.066011,31.9519012 113.768827,34.8125662 116.031894,38 L133,23.0962843 C129.824576,19.2817658 126.161512,15.8883234 122.102743,13 Z" id="Path" fill-opacity="0.3" fill="#FFFFFF" fill-rule="nonzero"></path>
                <path d="M86,56.6634796 C87.4299546,58.8562395 88.1856423,61.3806225 88.180917,63.9554178 L88.180917,64 L108,47.3077271 C106.35159,44.284366 104.270632,41.4890602 101.816737,39 L86,56.6634796 Z" id="Path" fill-opacity="0.3" fill="#FFFFFF" fill-rule="nonzero"></path>
                <path d="M146.668131,57.393557 L121.81385,13.5458811 C114.642304,8.53527949 106.553833,4.95322656 98,3 L146.879049,71 L146.997955,70.0407936 L146.997955,64.395869 C147.017773,62.0270949 146.892496,59.6908896 146.668131,57.393557 Z" id="Path" fill-opacity="0.3" fill="#FFFFFF" fill-rule="nonzero"></path>
            </g>
            <g id="Group" transform="translate(402.000000, 147.000000)">
                <rect id="Rectangle" stroke="#FFFFFF" stroke-width="2" x="0" y="0" width="35" height="38" rx="8"></rect>
                <g id="UI" transform="translate(3.000000, 4.000000)" fill="#FFFFFF" fill-rule="nonzero" font-family="BanglaMN, Bangla MN" font-size="25" font-weight="normal">
                    <text>
                        <tspan x="0" y="26">UI</tspan>
                    </text>
                </g>
            </g>
            <text id="Shopping-Malls" fill="#FFFFFF" fill-rule="nonzero" font-family="BanglaMN, Bangla MN" font-size="48" font-weight="normal">
                <tspan x="0.7466667" y="185">Shopping Malls</tspan>
            </text>
        </g>
    </g>
</svg>